# xmcd
#
# Track frame offsets:
#	150
#	16519
#	29470
#	44153
#	55674
#	71660
#	93780
#	106783
#	123216
#	134467
#
# Disc length: 2004 seconds
#
# Revision: 0
# Processed by: cddbd v1.5.2PL0 Copyright (c) Steve Scherf et al.
# Submitted via: EasyCDDAExtractor 12.0.4.1
#
DISCID=7b07d20a
DTITLE=Korenine - Pismo Iz Stare Skrinje
DYEAR=2004
DGENRE=country
TTITLE0=Pismo iz stare skrinje
TTITLE1=Ko si odsla
TTITLE2=Vihar
TTITLE3=Vecna polka
TTITLE4=Birtova hci
TTITLE5=Nepricakovano slovo
TTITLE6=Pri farni cerkvici
TTITLE7=Za ceno srece
TTITLE8=cricek
TTITLE9=Spomin na dom
EXTD=
EXTT0=
EXTT1=
EXTT2=
EXTT3=
EXTT4=
EXTT5=
EXTT6=
EXTT7=
EXTT8=
EXTT9=
PLAYORDER=
